# xmcd CD database file
#
# Track frame offsets:
#	151
#	28506
#	45350
#	59313
#	79880
#	116665
#	148384
#	181345
#	204634
#	245699
#
# Disc length: 3566 seconds
#
# Revision: 0
# Processed by: cddbd v1.5.1PL0 Copyright (c) Steve Scherf et al.
# Submitted via: CDex 1.50
#
DISCID=8e0dec0a
DTITLE=Eric Clapton - Change The World Tour '97 Osaka Night. Oct. 22.1997
DYEAR=1900
DGENRE=Blues
TTITLE0=Layla
TTITLE1=Change The World
TTITLE2=Nobody Knows You
TTITLE3=Tears In Heaven
TTITLE4=Goin' Down Slow
TTITLE5=Broken Hearted
TTITLE6=Pilgrim
TTITLE7=Before You Accuse Me
TTITLE8=I Shot The Sheriff
TTITLE9=Wonderful Tonight
EXTD=
EXTT0=
EXTT1=
EXTT2=
EXTT3=
EXTT4=
EXTT5=
EXTT6=
EXTT7=
EXTT8=
EXTT9=
PLAYORDER=
